# xmcd
#
# Track frame offsets:
# 150
# 13837
# 26821
# 37922
# 50306
# 66206
# 77541
# 90644
# 102578
# 115137
# 133599
# 146657
# 162628
# 177299
# 190209
# 202218
# 214789
#
# Disc length: 3023 seconds
#
#
# Revision: 0
# Processed by: cddbd v1.5.2PL0 Copyright (c) Steve Scherf et al.
# Submitted via: FreeRIP 2.96 
#
DISCID=f60bcd11
DTITLE=Various Artist - Stimmungshits
DYEAR=2006
DGENRE=Volksmusik
TTITLE0=Laurenziberg
TTITLE1=Liechtensteiner Polka
TTITLE2=Bei uns gibts nix zu erben
TTITLE3=Lasst die Fahnen auf dem Dach
TTITLE4=Auf der Reeperbahn
TTITLE5=Der schönste Platz ist an der Theke
TTITLE6=Einmal am Rhein
TTITLE7=Nach Hause gehn wir nicht
TTITLE8=Der treue Husar
TTITLE9=Das kann doch einen Seemann nicht erschüttern
TTITLE10=Heidewitzka
TTITLE11=Der Schornsteinfegermeister und die Bäckersfrau
TTITLE12=Die alten Rittersleut
TTITLE13=Aber dennoch hat Herr Maier
TTITLE14=Der Eiermann
TTITLE15=Der steirische Brauch
TTITLE16=Walzerpotpourri
EXTD=
EXTT0=
EXTT1=
EXTT2=
EXTT3=
EXTT4=
EXTT5=
EXTT6=
EXTT7=
EXTT8=
EXTT9=
EXTT10=
EXTT11=
EXTT12=
EXTT13=
EXTT14=
EXTT15=
EXTT16=
PLAYORDER=
